<svg width="76" height="63" viewBox="0 0 76 63" fill="none" xmlns="http://www.w3.org/2000/svg">
<g clip-path="url(#clip0_1_288)">
<path d="M61.1919 0.336914H14.979V61.5772H61.1919V0.336914Z" fill="#4F5256"/>
<path d="M58.1808 9.06812H18.0107V61.5773H58.1808V9.06812Z" fill="#6B6D70"/>
<path d="M65.8624 0.336914V61.5772H61.192V8.11153H14.979V61.5772H10.3086V0.336914H65.8624Z" fill="#54595F"/>
<path opacity="0.2" d="M14.979 8.11157L18.0107 9.06813H58.1807L61.1919 8.11157H14.979Z" fill="#130F40"/>
<g opacity="0.2">
<path opacity="0.2" d="M38.0855 61.618C38.0445 61.618 38.024 61.5976 38.024 61.5569V9.06814C38.024 9.02743 38.0445 9.00708 38.0855 9.00708C38.1265 9.00708 38.147 9.02743 38.147 9.06814V61.5569C38.147 61.5976 38.1265 61.618 38.0855 61.618Z" fill="#130F40"/>
</g>
<path d="M45.5418 2.22974H30.6292V6.48339H45.5418V2.22974Z" fill="white"/>
<path d="M36.037 4.59052L34.767 2.84021L33.4969 4.59052H34.1934V5.87272H35.3405V4.59052H36.037Z" fill="#B684B9"/>
<path opacity="0.3" d="M39.417 4.12241L40.6665 5.87272L41.9366 4.12241H41.2606V2.84021H40.093V4.12241H39.417Z" fill="#B684B9"/>
<rect x="37.7992" y="8.92773" width="1.14544" height="52.6902" fill="#C4C4C4"/>
</g>
<rect x="-0.00012207" y="62.7634" width="1.14544" height="75.0263" transform="rotate(-90 -0.00012207 62.7634)" fill="#2E5372"/>
<defs>
<clipPath id="clip0_1_288">
<rect width="55.5538" height="61.281" fill="white" transform="translate(10.3086 0.336914)"/>
</clipPath>
</defs>
</svg>
