<svg width="107" height="66" viewBox="0 0 107 66" fill="none" xmlns="http://www.w3.org/2000/svg">
<g clip-path="url(#clip0_125_4)">
<path d="M6.16318 61.9273C6.55657 62.2532 7.70961 62.81 8.25222 62.552C8.79483 62.294 7.73674 60.7186 7.70961 60.0668C7.66892 59.2519 8.08944 57.2284 8.55066 56.7259C8.95761 56.2778 9.41883 55.9926 9.83935 55.5988C10.2056 55.2592 10.287 54.6889 10.0021 54.3901C9.55448 53.9284 8.98474 53.7111 8.27935 54.1728C8.04874 54.3222 7.31622 54.7432 6.82787 55.0148C6.39379 55.2592 5.90544 55.2592 5.29501 55.5309C4.67101 55.8025 4.83379 56.5087 4.90162 56.7395C5.05083 57.2963 5.21361 58.1112 5.26788 58.5865C5.36283 59.3606 5.20005 59.7951 5.34927 60.5557C5.41709 61.0038 5.71553 61.5606 6.16318 61.9273Z" fill="#1E2859"/>
<path d="M31.6387 61.5877C31.598 62.3211 31.693 62.552 32.6154 62.6606C33.1173 62.7149 33.7277 62.647 34.1483 62.6878C34.935 62.7693 36.4815 63.3532 37.7023 63.3532C38.6519 63.3532 40.0763 63.3532 39.8592 62.6606C39.6693 62.0495 38.3128 61.9001 37.743 61.6964C36.9698 61.4112 36.1966 61.0988 35.5455 60.5964C34.813 60.026 34.501 59.5778 34.1618 58.8716C34.0126 58.5729 33.6328 58.0296 33.0766 57.8802C31.9507 57.5815 31.6523 58.0568 31.8286 59.6593C31.8964 60.2976 31.6658 61.0988 31.6387 61.5877Z" fill="#1E2859"/>
<path d="M17.151 26.6858C17.2324 28.2069 17.653 29.1982 19.4164 29.3069C21.085 29.402 25.4665 29.4563 26.5789 29.402C28.166 29.3205 29.1563 28.7365 29.509 27.2426C29.943 25.3821 30.3907 13.9201 30.2415 12.8065C30.1465 12.1003 29.821 11.3534 28.5051 10.8917C27.6777 10.6065 24.9782 10.267 23.0248 10.1855C21.3834 10.1176 19.4978 10.3756 18.277 10.62C16.8119 10.9188 16.4863 11.2719 16.4592 12.8337C16.4185 13.8115 17.029 24.2549 17.151 26.6858Z" fill="#BF98C5"/>
<path d="M26.7145 2.91981C26.4568 1.79263 25.3037 1.26299 24.327 1.1136C23.2418 0.950633 21.8446 1.54818 21.2477 2.43091C20.7323 3.19142 20.4745 4.30503 21.5326 6.43718C21.7904 6.95324 21.7497 7.65943 21.6818 8.20265C21.614 8.74587 21.5597 9.15329 21.4784 9.62861C21.3834 10.2126 21.0036 10.1447 20.9357 10.362C20.6237 11.4348 22.767 13.1324 24.5848 13.0645C26.2804 12.9966 26.077 11.1089 25.9413 10.6879C25.8328 10.3484 25.5072 10.3212 25.3309 10.2262C24.8832 9.99528 24.8968 9.73725 24.9239 8.92242C24.9375 8.36561 24.9239 7.79523 25.1138 7.71375C25.358 7.6051 25.4394 7.57794 25.67 7.41498C25.8735 7.27917 26.0363 7.02114 26.1312 6.80385C26.3347 6.32853 26.3754 5.29641 26.4161 4.79393C26.4704 4.16922 26.8637 3.5581 26.7145 2.91981Z" fill="#FEC1B5"/>
<path d="M41.6228 33.1094C41.8534 32.5662 41.7177 32.1452 41.053 31.5612C40.6189 31.1809 36.2102 27.5957 34.813 26.387C34.0127 25.6944 33.1716 24.2956 32.9275 23.2499C32.5883 21.7289 31.7744 17.1658 31.2861 14.9386C30.8791 13.1324 30.5807 11.4348 28.5459 10.9324C27.732 10.7286 26.8096 11.4756 26.5518 12.2904C26.3212 13.0373 26.3076 14.0423 26.484 14.7892C26.9316 16.7584 29.3191 22.6795 30.0516 24.6487C30.6892 26.3463 31.9643 27.7043 33.4836 28.7093C35.5184 30.0538 38.3807 32.0773 40.4019 33.2588C40.9716 33.5983 41.4735 33.4489 41.6228 33.1094Z" fill="#BF98C5"/>
<path d="M16.5406 15.5497C16.717 19.0806 17.0561 24.9474 17.1511 26.6858C17.1511 26.7265 17.1511 26.7672 17.1646 26.808C17.3274 26.903 17.5716 26.9438 17.9379 26.903C19.308 26.7537 20.2846 25.6536 20.6916 25.0425C21.6005 23.6845 21.6005 21.0227 21.5598 19.7461C21.5462 19.3115 21.4784 18.0078 21.3563 17.7769C21.0036 17.1115 20.7323 19.135 20.7594 20.2214C20.773 20.8869 20.7052 22.4758 20.4881 23.0597C20.3118 23.5351 19.9591 23.5351 19.742 23.0733C19.2673 22.0548 19.4979 16.9485 18.8739 16.2559C18.3855 15.7534 17.3546 15.346 16.5406 15.5497Z" fill="#9560A0"/>
<path d="M7.77742 53.6024C8.9169 52.3394 14.0852 46.3097 14.7092 45.5627C15.7809 44.2997 16.4049 42.6157 16.4049 40.7824C16.4185 37.8761 16.4049 28.8315 16.3506 27.7858C16.3371 27.4734 16.3642 26.7401 16.4592 26.5771C16.7033 26.1561 16.9204 26.5907 17.5172 26.645C18.5889 26.7265 19.1858 26.1561 19.7012 25.7487C21.207 24.5536 21.1663 22.6659 21.2205 20.9004C21.2477 19.9226 21.2612 18.3609 21.2205 17.5053C21.0849 14.8707 20.8543 13.3632 20.0811 12.2768C19.4978 11.4619 18.8195 10.9051 18.0599 10.7829C17.8292 10.7422 17.8021 10.6879 17.9378 10.6471C18.0599 10.6064 18.7245 10.4706 18.9687 10.4706C19.7012 10.4706 20.583 11.1224 21.2477 12.1138C21.9259 13.1324 22.2786 14.8978 22.455 17.03C23.7572 17.03 25.6971 17.03 26.9451 17.03C27.0536 14.7213 26.7823 12.1002 26.4432 11.0138C26.3075 10.5792 26.199 10.3755 26.3889 10.4027C26.5652 10.4298 27.0536 10.4977 27.1892 10.5113C27.4063 10.5385 27.4334 10.5792 27.5555 10.9051C28.0439 12.2632 28.2202 15.7806 28.2745 17.6683C28.3016 18.7004 28.5051 22.3264 28.5593 23.4943C28.6 24.3363 28.6 25.1104 28.9663 25.8981C29.1969 26.387 29.6852 26.6586 30.0108 26.8623C30.3364 27.0524 30.4178 27.3105 30.4449 27.6771C30.5805 29.0895 30.6619 31.0044 30.9061 31.8056C31.2181 32.8242 31.4759 33.5982 31.9913 34.8205C32.968 37.102 34.0397 39.0033 34.9485 41.1762C35.7489 43.1046 35.7082 44.8294 35.5183 46.8393C35.3012 49.2159 34.623 56.6037 34.4873 58.4507C34.4331 59.2927 33.2393 59.3198 32.439 59.4013C30.5941 59.5779 30.8519 58.4099 30.7976 57.3506C30.7433 56.2235 30.6891 51.6468 30.6755 50.3974C30.6212 47.8714 30.2278 46.8529 29.631 45.3454C28.7899 43.1725 26.1719 38.4737 25.7242 37.6045C25.5614 37.2786 25.168 36.423 24.5847 36.4773C23.9065 36.5317 23.8929 36.9934 23.6487 37.7811C23.3367 38.7589 22.3058 42.7787 21.9259 44.0689C21.3698 45.943 20.4066 47.0158 19.8505 47.5726C18.2769 49.1751 12.6202 54.6481 10.4362 56.6445C9.88003 57.1605 9.51377 57.0383 8.84907 56.6716C8.49637 56.4679 7.56037 55.6395 7.26194 55.137C6.88211 54.5259 7.13985 54.3086 7.77742 53.6024Z" fill="#2E5372"/>
<path d="M23.8522 37.1428C23.9743 36.7625 24.137 36.5452 24.5847 36.5045C25.168 36.4502 25.5614 37.3057 25.7242 37.6317C26.1718 38.5008 28.7899 43.1997 29.6309 45.3726C30.2142 46.88 30.6212 47.8986 30.6619 50.4246C30.6755 51.4703 30.7297 54.9061 30.7704 56.6309C31.096 56.3593 31.313 55.4086 31.2995 54.8926C31.2859 54.2814 31.1095 53.0184 31.1367 51.6875C31.1638 50.1801 31.7878 49.0122 31.5301 47.7492C31.3266 46.7306 30.5398 45.9158 30.3499 44.8429C30.1329 43.6479 30.2142 42.6836 29.7123 41.5564C29.4275 40.891 28.5593 40.3206 28.2744 39.4922C27.8403 38.2292 28.3965 36.4637 27.5419 35.0106C27.1485 35.0106 25.3172 35.1328 24.9916 35.1736C24.7203 35.2143 24.4897 35.4045 24.4219 35.581C24.2184 36.0971 24.1099 36.3551 23.9064 36.8847C23.9064 36.9391 23.8793 37.0341 23.8522 37.1428Z" fill="#20435B"/>
<path d="M35.8575 32.4983C36.1017 32.3218 36.902 32.5798 37.2412 32.7156C37.6617 32.8921 39.8186 33.4082 40.429 33.3131C41.0666 33.2181 41.4464 33.0959 41.677 33.1909C41.9212 33.286 42.613 33.4625 42.1654 33.7613C41.6906 34.0872 40.4968 34.8477 40.0627 35.1058C39.8593 35.228 39.5066 35.3909 39.2488 35.3638C38.6927 35.3095 38.1636 35.228 37.8109 35.1737C37.4311 35.1058 36.9699 34.5625 36.6036 34.223C35.8033 33.4354 35.3556 32.8786 35.8575 32.4983Z" fill="#E8988C"/>
<path d="M12.3625 23.1004C12.9458 20.7238 14.3294 15.5768 14.9806 13.6891C15.2926 12.7792 15.5639 11.4755 16.432 11.1903C17.1781 10.9323 17.6258 10.7286 18.087 11.0952C19.5927 12.3311 19.0501 13.92 18.6432 15.4818C18.1141 17.5188 16.9611 21.0769 16.5677 22.4486C16.1472 23.956 16.9068 25.3141 17.5715 26.0067C18.711 27.1882 23.9607 32.213 24.3541 32.5797C25.0188 33.1772 25.1138 33.5575 24.9103 34.0871C24.8153 34.3587 24.2456 34.5896 23.7437 34.2637C21.8988 33.0822 16.0522 29.1574 14.248 27.8265C12.4846 26.5092 11.6571 25.9388 12.3625 23.1004Z" fill="#BF98C5"/>
<path d="M23.581 32.9464C23.7709 32.702 24.2457 32.5255 24.5441 32.7156C25.8735 33.5576 28.2203 32.96 28.9799 33.1909C29.2377 33.2724 29.9159 33.4625 29.4683 33.7613C28.9935 34.0872 27.7997 34.8477 27.3657 35.1058C27.1622 35.228 26.8095 35.3909 26.5517 35.3638C25.9956 35.3095 25.4665 35.228 25.1138 35.1737C24.734 35.1058 24.2864 34.6304 23.893 34.3317C23.486 34.0329 23.2011 33.4489 23.581 32.9464Z" fill="#E8988C"/>
<path d="M26.7145 2.91982C26.5924 2.34944 26.2261 1.94202 25.792 1.64325C24.8154 1.61609 23.6894 1.98277 23.1875 2.71612C22.7941 3.31366 23.5131 3.38156 24.015 3.36798C24.639 3.34082 25.4936 3.23218 26.1176 3.34082C26.3347 3.38156 26.5381 3.43588 26.7009 3.57169C26.7552 3.3544 26.7687 3.13711 26.7145 2.91982Z" fill="#E8988C"/>
<path d="M20.5966 2.66178C20.7051 2.37659 20.895 2.20004 20.9764 1.88769C21.2341 0.937052 22.7263 0.298766 23.8658 0.407411C24.4762 0.461733 26.3753 0.86915 26.9044 2.39017C27.0672 2.85191 26.9179 3.61242 26.8501 3.73465C26.728 3.93835 26.6602 3.74823 26.6738 3.65316C26.6738 3.4902 26.7145 3.10994 26.6059 2.83833C26.5381 2.66178 26.3618 2.37659 26.0498 2.26795C25.5479 2.10498 24.8425 2.13214 24.3406 2.24079C24.0828 2.29511 23.8658 2.55314 23.8386 2.81117C23.7844 3.24575 23.6759 3.81613 23.4046 4.23713C23.1061 4.68529 22.4007 4.92974 22.4007 4.92974C22.3736 4.75319 22.3058 4.6038 22.2244 4.52232C21.9395 4.82109 22.1023 6.02976 22.1159 6.50508C22.1294 6.72237 22.1294 7.26559 21.9531 7.30633C21.7632 7.36065 21.6411 7.07546 21.5461 6.88533C20.8 5.5137 20.1489 3.81613 20.5966 2.66178Z" fill="#1E2859"/>
<path d="M20.366 4.31857C20.4067 4.5087 20.5695 4.84822 20.7866 4.60377C21.3834 3.91116 21.8853 3.49016 22.7399 2.9741C23.2961 2.64817 23.8116 2.37656 24.4356 2.25433C25.2902 2.09136 26.1177 2.14569 26.8231 2.47162C26.9452 2.52594 27.0537 2.39014 26.9994 2.21359C26.7959 1.45308 26.4161 0.869114 25.4394 0.271569C24.7205 -0.163009 23.174 -0.0136226 22.2787 0.257989C19.9998 0.937016 19.9998 2.71607 20.366 4.31857Z" fill="#2E5372"/>
<path d="M23.0383 2.7296C23.2147 2.62095 23.8251 2.3765 24.1778 2.19996C24.5441 2.02341 24.8289 1.83328 25.1681 1.58883C25.4529 1.37154 25.6971 0.977706 26.1854 0.719676C26.4703 0.57029 26.6331 0.556709 26.7281 0.543129C26.7688 0.543129 26.7145 0.488806 26.4703 0.57029C25.9548 0.733256 25.1681 1.15425 24.6933 1.30364C23.4453 1.69748 22.9976 2.43083 22.9298 2.75676C22.9027 2.7975 22.9569 2.77034 23.0383 2.7296Z" fill="#2963BD"/>
<path d="M22.957 2.75678C23.6624 2.36294 24.7611 2.06417 25.5479 1.16786C26.3076 0.312281 27.4064 0.339442 28.0846 0.896245C28.383 1.14069 28.8443 1.71108 28.6408 2.2543C28.4644 2.72962 27.637 3.00123 27.1893 3.06913C26.9723 3.09629 26.918 3.06913 26.823 2.96049C26.6874 2.79752 26.4432 2.53949 26.0091 2.37652C25.3987 2.14566 24.4491 2.26788 23.8523 2.45801C23.6624 2.51233 23.2283 2.72962 23.0384 2.82468C22.9298 2.87901 22.862 2.8111 22.957 2.75678Z" fill="#2963BD"/>
<path d="M22.3058 4.71235C22.4686 5.13335 22.3872 5.60867 22.1023 5.64941C21.8581 5.67657 21.5326 5.40496 21.3562 5.0247C21.1663 4.60371 21.1121 4.19629 21.519 4.10122C21.9124 4.01974 22.143 4.29135 22.3058 4.71235Z" fill="#FEC1B5"/>
<path d="M23.0383 7.33351C22.9569 7.23844 22.4686 6.573 22.4008 6.65448C22.2922 6.80387 22.5364 7.7545 22.7806 8.12118C23.0112 8.46069 23.5538 9.16688 24.4084 9.2212C24.6119 9.23478 24.7611 9.2212 24.8968 9.20762C24.8968 9.12614 24.8968 9.03107 24.9103 8.92243C24.9239 8.65082 24.9239 8.36563 24.9375 8.13476C24.2592 8.13476 23.5267 7.89031 23.0383 7.33351Z" fill="#E8988C"/>
<path d="M23.8115 8.31129C24.5169 8.69154 25.6157 8.73228 26.0091 8.39277C26.5245 7.94461 26.6738 6.39643 26.5245 6.01617C26.3618 5.60875 25.9412 5.58159 25.4529 5.73098C24.9645 5.86678 24.6254 6.30136 24.0014 5.96185C23.6758 5.7853 23.296 4.88898 23.079 4.37292C22.9976 4.16921 22.4414 4.27786 22.4414 4.49515C22.3872 5.52727 22.0752 7.38781 23.8115 8.31129Z" fill="#1E2859"/>
<path d="M26.1041 6.64096C26.0905 6.70886 25.8328 6.83108 25.5208 6.79034C25.2088 6.7496 25.0053 6.50515 25.0324 6.43725C25.0596 6.36935 25.2495 6.53231 25.5751 6.57305C25.8871 6.6138 26.1041 6.57305 26.1041 6.64096Z" fill="white"/>
<path d="M45.4481 16.4731H36.6307V25.3005H45.4481V16.4731Z" fill="#FFA748"/>
<path d="M45.4595 25.3021H47.4672V16.4748H45.4595V25.3021Z" fill="#D68029"/>
<path d="M40.8901 22.5029H38.1228V22.6523H40.8901V22.5029Z" fill="white"/>
<path d="M40.8901 22.9375H38.1228V23.0869H40.8901V22.9375Z" fill="white"/>
<path d="M40.8901 23.3856H38.1228V23.535H40.8901V23.3856Z" fill="white"/>
<path d="M40.8901 23.8203H39.113V23.9697H40.8901V23.8203Z" fill="white"/>
<path d="M59.8138 12.4402H46.9675V25.301H59.8138V12.4402Z" fill="#FFA748"/>
<path d="M59.8215 25.299H62.7516V12.4382H59.8215V25.299Z" fill="#D68029"/>
<path d="M53.1668 21.2129H49.1379V21.4166H53.1668V21.2129Z" fill="white"/>
<path d="M53.1668 21.8647H49.1379V22.0685H53.1668V21.8647Z" fill="white"/>
<path d="M53.1668 22.5031H49.1379V22.7068H53.1668V22.5031Z" fill="white"/>
<path d="M53.1669 23.1414H50.5759V23.3451H53.1669V23.1414Z" fill="white"/>
<path d="M59.6644 25.0706H22.3737V33.8028H59.6644V25.0706Z" fill="#D68029"/>
<path d="M59.668 33.7949H76.7059V25.0626H59.668V33.7949Z" fill="#FFA748"/>
<path d="M87.1882 15.3732C86.2793 17.1387 84.6379 20.8462 83.9461 22.7611C83.4035 24.2549 83.5391 25.6266 83.7833 27.1476C84.0546 28.818 84.5565 31.602 84.8957 33.1909C85.0313 33.8021 85.072 34.3453 85.8317 34.3181C86.4285 34.3045 86.6727 33.5169 86.6863 33.0008C86.7134 31.9008 86.6727 28.2476 86.7541 27.4328C86.8219 26.8217 87.256 25.0969 87.7037 24.3772C88.6668 22.8154 89.3315 21.7425 90.4574 19.8956C91.9903 17.3832 92.5736 15.5498 91.9632 13.6078C91.7732 13.0102 91.095 12.4942 90.5524 12.2633C90.0098 12.046 89.5078 12.0868 89.3315 12.1547C88.5718 12.4806 87.8665 14.0559 87.1882 15.3732Z" fill="#BF98C5"/>
<path d="M77.2449 27.8402C77.8553 27.8945 86.2114 28.6143 87.3374 28.5735C87.6087 28.56 88.0427 28.4106 88.1513 28.0303C88.3141 27.4599 88.0699 24.6488 88.3547 23.0463C88.6396 21.4302 90.4709 16.1202 90.8236 14.151C91 13.1596 91.0271 12.5213 90.2539 12.1139C89.4942 11.7201 87.2424 11.0682 86.4285 10.9052C84.8007 10.5793 82.9694 10.4028 81.3144 10.4978C80.5548 10.5386 79.6052 10.6744 79.0355 11.2312C78.5607 11.6793 78.2216 12.2905 78.0588 12.9423C77.7196 14.3004 77.5433 19.2437 77.5026 20.4252C77.4619 21.8512 77.2042 22.7203 76.96 23.7932C76.7023 24.8796 76.5259 25.5994 76.2682 26.6451C76.0647 27.4192 76.3224 27.7587 77.2449 27.8402Z" fill="#BF98C5"/>
<path d="M82.047 5.14715C82.0877 5.63605 82.0606 6.50521 82.1827 6.99411C82.2641 7.33362 82.5625 7.87684 82.7524 8.01265C82.9695 8.17562 83.0644 8.22994 83.2543 8.37933C83.4714 8.56945 83.4849 9.167 83.5256 9.50651C83.5935 10.1176 83.5121 10.2806 83.078 10.4164C82.9288 10.4572 82.6168 10.5115 82.5761 10.6744C82.5354 10.8102 82.6168 11.272 82.8338 11.5979C83.3086 12.3041 83.8919 13.1325 85.3434 13.1325C86.2115 13.1325 87.4053 12.1819 87.1204 11.1633C87.0661 10.9596 86.727 10.6337 86.6999 10.4843C86.6321 9.99541 86.5914 9.31638 86.5642 8.84106C86.5371 8.29784 86.3879 8.08055 86.6456 7.59165C87.6766 5.54099 87.5545 4.18293 87.1611 3.35452C86.7406 2.49895 85.6011 1.67053 84.4074 1.75201C83.2408 1.8335 82.047 2.56685 81.8029 3.55823C81.6265 4.19651 81.9928 4.52245 82.047 5.14715Z" fill="#FEC1B5"/>
<path d="M82.5896 7.84966C82.6303 7.91756 82.6846 7.97188 82.7524 8.02621C82.9694 8.18917 83.0508 8.2435 83.2543 8.39288C83.3764 8.48795 83.4306 8.74598 83.4713 9.03117C83.5527 9.04475 83.6748 9.04475 83.8783 9.01759C84.5294 8.92252 85.167 8.21633 85.3569 7.8904C85.574 7.55089 85.8181 6.70889 85.7232 6.57309C85.6689 6.4916 85.2484 7.12989 85.167 7.21137C84.5159 8.01263 83.3628 8.10769 82.5896 7.84966Z" fill="#E8988C"/>
<path d="M95.8022 60.3927C95.7344 61.126 95.8158 61.3569 96.7382 61.4656C97.2401 61.5199 97.8506 61.452 98.2575 61.4927C99.0307 61.5742 100.564 62.1582 101.784 62.1582C102.72 62.1582 104.158 62.1582 103.968 61.4656C103.806 60.8544 102.449 60.7051 101.893 60.5013C101.133 60.2162 100.374 59.9038 99.7361 59.4013C99.0307 58.8309 98.7187 58.3964 98.4067 57.6766C97.9591 56.6173 97.8913 55.7617 97.0638 55.6667C96.1685 55.558 95.87 56.1963 96.0328 58.4643C96.1007 59.1026 95.8429 59.9174 95.8022 60.3927Z" fill="#1E2859"/>
<path d="M60.302 59.9038C60.6547 60.2433 61.7535 60.8273 62.3097 60.5557C62.8659 60.2977 61.9841 58.6273 62.0112 57.9482C62.0519 57.0927 62.6624 54.9741 63.1643 54.458C63.6119 53.9963 64.0867 53.6975 64.5479 53.2765C64.9413 52.9234 65.077 52.3259 64.8192 52.0136C64.4259 51.5382 63.8832 51.3074 63.1372 51.7827C62.893 51.9456 62.1198 52.3802 61.6179 52.6654C61.1702 52.9234 60.6954 52.9234 60.0578 53.1951C59.4067 53.4802 59.5017 54.2272 59.5424 54.458C59.6373 55.042 59.7052 55.884 59.7187 56.3865C59.7323 57.1877 59.5424 57.6495 59.5966 58.4507C59.6645 58.9396 59.9086 59.51 60.302 59.9038Z" fill="#1E2859"/>
<path d="M85.6554 4.07415C85.2756 3.02844 83.7699 2.29509 82.6711 2.363C82.237 2.67535 81.8979 3.09635 81.7894 3.57167C81.7215 3.87044 81.7622 4.10131 81.8301 4.3186C81.8708 4.25069 81.925 4.19637 81.9793 4.14205C82.1963 3.97908 82.4541 3.9655 82.7118 3.97908C83.3358 4.01982 84.1226 4.33218 84.7194 4.49514C85.1942 4.64453 85.8996 4.75317 85.6554 4.07415Z" fill="#E8988C"/>
<path d="M83.485 1.11367C84.3803 0.896385 85.1807 0.909966 86.0488 1.18158C86.5236 1.33096 86.9306 1.54825 87.2154 1.8606C87.3647 2.02357 87.541 2.39025 87.5546 2.66186C87.5817 2.97421 87.636 2.97421 87.8394 3.17792C88.07 3.39521 88.0429 3.88411 88.0293 4.33227C88.0158 4.86191 87.7852 5.36439 87.5817 5.86687C87.3104 6.5459 86.6728 8.0126 86.4287 7.91753C86.2794 7.86321 86.0624 7.38789 86.076 7.1706C86.1031 6.72244 86.1302 6.2607 86.1981 5.82613C86.2523 5.50019 86.2523 5.50019 86.1031 5.24216C86.0488 5.36439 85.9267 5.7039 85.9267 5.7039L85.4791 5.50019C85.5198 5.02487 85.4927 4.26436 85.3977 3.93843C85.2621 3.54459 85.0179 3.1915 84.6788 3.00137C83.9869 2.60754 82.8068 2.71618 82.0878 3.13718C81.8029 3.30014 81.7622 3.82979 81.8029 4.04707C81.8301 4.18288 81.9115 4.56314 81.8029 4.49523C81.6944 4.41375 81.5452 3.92485 81.5316 3.6125C81.5045 3.21866 81.5588 2.81124 81.7351 2.47173C82.1014 1.75196 82.7661 1.29022 83.485 1.11367Z" fill="#1E2859"/>
<path d="M85.9673 5.47296C85.8452 5.9347 85.9809 6.3557 86.2793 6.43718C86.5642 6.51866 86.9033 6.20631 87.0254 5.74457C87.1475 5.28283 87.0118 4.86183 86.7134 4.78035C86.4285 4.71245 86.0894 5.01122 85.9673 5.47296Z" fill="#FEC1B5"/>
<path d="M86.293 0.842024C85.4112 0.543251 83.8648 0.339543 83.1323 0.76054C82.142 1.33092 81.735 1.88773 81.5044 2.63466C81.4502 2.82478 81.5587 2.94701 81.6672 2.90627C82.3862 2.6075 83.2137 2.58033 84.0683 2.77046C84.6923 2.90627 85.1942 3.19146 85.7368 3.54455C86.5778 4.08778 87.0662 4.53593 87.6495 5.24212C87.853 5.48657 88.0293 5.14706 88.07 4.97051C88.5041 3.36801 88.5448 1.58895 86.293 0.842024Z" fill="#2E5372"/>
<path d="M85.574 3.31364C85.5197 3.00128 85.0992 2.24077 83.8648 1.80619C83.39 1.64323 82.6168 1.19507 82.1149 1.01852C81.8707 0.937038 81.8164 0.97778 81.8571 0.99136C81.9385 1.00494 82.1013 1.01852 82.3997 1.18149C82.8745 1.4531 83.1051 1.86052 83.39 2.09139C83.7155 2.34942 84.0004 2.55312 84.3531 2.74325C84.6922 2.9198 85.2891 3.20499 85.4654 3.30005C85.5468 3.3408 85.5875 3.36796 85.574 3.31364Z" fill="#2963BD"/>
<path d="M85.5333 3.31367C84.8415 2.89267 83.7563 2.55316 82.9831 1.64326C82.2505 0.760528 81.1518 0.760528 80.4599 1.29017C80.1479 1.53462 79.6867 2.09142 79.8631 2.63464C80.0259 3.12354 80.8398 3.42232 81.2874 3.49022C81.5045 3.53096 81.5587 3.49022 81.6537 3.39516C81.8029 3.24577 82.0471 2.98774 82.4811 2.83835C83.1051 2.62106 84.0547 2.77045 84.6244 2.98774C84.8008 3.05564 85.2349 3.27293 85.4248 3.38157C85.5604 3.4359 85.6282 3.38157 85.5333 3.31367Z" fill="#2963BD"/>
<path d="M77.1772 27.2698C77.0823 27.4871 76.9873 27.6636 76.8923 27.7859C76.2548 27.6501 76.092 27.297 76.2683 26.6179C76.5396 25.5722 76.716 24.8525 76.9602 23.766C77.2043 22.6932 77.4621 21.824 77.5028 20.398C77.5299 19.5832 77.6249 16.9214 77.7877 14.9387C78.059 14.2461 78.5202 14.1103 79.3341 15.1152C80.365 16.3782 78.3981 25.2599 77.1772 27.2698Z" fill="#9560A0"/>
<path d="M65.104 32.5934C65.6466 32.607 66.0807 32.512 66.3792 31.5613C66.5555 30.9909 68.3597 25.4501 68.9294 23.6574C69.3228 22.4216 70.3673 21.1315 71.2898 20.5339C72.6192 19.6648 76.7023 17.3832 78.6557 15.9709C80.1343 14.9116 81.6129 14.1103 81.3009 11.9918C81.1788 11.1362 80.2564 10.6473 79.3611 10.7016C78.5607 10.7559 77.584 10.9053 76.9193 11.3399C75.1966 12.4807 70.4352 16.8672 68.8345 18.2796C67.4508 19.4882 66.6776 21.3352 66.2842 23.1414C65.7823 25.4229 64.8599 29.1711 64.3851 31.507C64.2223 32.186 64.6428 32.5799 65.104 32.5934Z" fill="#BF98C5"/>
<path d="M63.1101 34.6983C63.395 34.7526 63.7477 34.7255 63.924 34.6847C64.4395 34.5625 65.5518 34.2909 65.7417 33.9106C65.9588 33.4761 66.0944 32.6748 66.2301 32.1316C66.3386 31.6698 66.013 31.2896 65.5111 31.276C64.955 31.2624 64.4802 31.8328 64.1953 32.2266C63.6527 32.9736 61.211 33.5575 61.0482 33.965C60.9261 34.2773 62.3369 34.5489 63.1101 34.6983Z" fill="#E8988C"/>
<path d="M62.6081 51.4431C63.5034 50.7505 72.0088 43.9874 72.5785 43.3763C73.2703 42.6429 74.0707 41.2713 74.1521 40.2391C74.3284 38.0934 74.3827 34.0464 74.5862 30.8278C74.654 29.8229 75.0338 28.8179 75.3458 28.1117C75.5628 27.6228 75.8206 27.2969 76.2004 27.066C76.9601 26.6178 78.0453 26.5499 78.7507 26.0067C79.4154 25.4907 79.9173 24.8388 80.1072 24.0511C80.5141 22.435 80.9618 19.4337 81.1653 17.9806C81.3416 16.6633 81.3959 14.5176 80.7448 12.8064C80.4192 11.9644 79.6731 11.136 79.4018 10.8916C79.2255 10.7286 79.1983 10.6471 79.3475 10.62C79.5646 10.5656 79.958 10.5113 80.175 10.4842C80.4056 10.457 80.5684 10.5385 80.7312 10.7014C81.1924 11.136 81.8571 12.1546 82.1284 13.1459C82.4811 14.4361 82.5896 15.9164 82.4675 17.6139C83.6477 17.6954 85.7639 17.8584 86.9034 17.9535C87.5952 15.4003 87.9614 13.1052 87.7173 11.5027C87.6766 11.2582 87.6494 11.136 87.7987 11.1903C87.9886 11.2582 88.3955 11.3805 88.6397 11.462C88.8568 11.5299 88.911 11.8558 88.9381 11.9509C89.2773 13.1731 88.5041 16.9757 88.0428 18.4831C88.0157 18.8769 87.5409 22.2585 87.4731 23.2906C87.4188 24.2277 87.2967 25.1647 87.5816 26.0882C87.7037 26.4956 88.0835 27.1339 88.3548 27.4191C88.8296 27.908 88.8025 28.0302 88.8568 28.6006C88.8974 29.0216 88.9653 30.7735 88.9653 31.5883C89.7114 34.1415 91.814 38.786 92.5058 40.3478C93.6317 42.9009 94.3914 45.3318 94.7983 46.5541C95.6122 48.985 96.6296 51.9184 97.7827 55.6123C97.9183 56.0741 98.1354 56.5901 97.9047 57.079C97.6877 57.5679 97.1994 57.8803 96.7653 58.084C96.0056 58.4371 95.0154 58.6136 94.5677 57.8531C94.3642 57.5136 93.8081 56.1556 93.6317 55.6802C92.6143 53.0592 91.8818 51.3616 90.8373 48.6862C90.2268 47.1516 88.9517 45.1553 87.8394 43.3898C86.8084 41.7737 84.1089 37.8354 83.5663 37.0341C82.9288 36.0971 81.8707 36.0156 81.3009 37.3057C80.7583 38.528 79.0898 43.1318 78.5065 44.3269C77.9503 45.4948 77.0821 46.6356 75.8748 47.5183C74.342 48.6455 66.2164 54.1456 64.9142 54.716C64.2223 55.0284 63.9239 54.8926 63.639 54.7024C63.2999 54.4851 62.9743 54.0506 62.6759 53.5073C62.5131 53.2221 62.2554 52.6789 62.2147 52.2715C62.2011 51.8234 62.4317 51.5789 62.6081 51.4431Z" fill="#2E5372"/>
<path d="M81.4637 37.1156C82.0606 36.0699 83.0237 36.2058 83.607 37.0749C84.1497 37.8762 86.8491 41.8145 87.8801 43.4306C88.9924 45.1961 90.2676 47.1788 90.878 48.727C91.502 50.3295 92.0175 51.579 92.5465 52.8827C92.6008 52.8012 92.6415 52.679 92.6415 52.516C92.6415 51.9049 92.0582 50.8456 91.8004 49.7456C91.5834 48.8493 91.4477 47.2875 90.9458 46.1739C90.7017 45.6171 89.6029 44.6664 89.1959 43.6886C88.7211 42.5886 88.7076 41.3392 88.07 40.3071C87.6902 39.696 86.7542 39.2885 86.3608 38.528C85.7503 37.3465 85.8453 35.1329 85.045 34.3452C84.6516 34.4131 83.1323 34.7119 82.8474 34.7798C82.5761 34.8341 82.3862 35.0514 82.3048 35.228C81.9792 35.8934 81.8436 36.3144 81.5044 36.9255C81.4909 36.9663 81.4637 37.0477 81.4637 37.1156Z" fill="#20435B"/>
<path d="M97.8235 55.6396C96.7654 52.2173 95.8159 49.4468 95.0291 47.1382C94.3644 47.8172 91.8005 49.7999 91.4478 47.9122C91.3665 47.4777 91.0952 46.9344 90.851 46.9752C90.5797 47.0295 90.4033 47.2061 90.2948 47.4777C90.5254 47.9122 90.7153 48.3332 90.8645 48.7271C91.9091 51.3889 92.6416 53.1 93.659 55.7211C93.8353 56.1828 94.3915 57.5408 94.595 57.8939C95.0426 58.6545 96.0329 58.4779 96.7926 58.1248C97.2267 57.9211 97.715 57.6088 97.9321 57.1199C98.1762 56.6174 97.9727 56.1013 97.8235 55.6396Z" fill="#2E5372"/>
</g>
<path d="M53.3683 65.4193C82.8427 65.4193 106.737 64.4944 106.737 63.3535C106.737 62.2125 82.8427 61.2876 53.3683 61.2876C23.8938 61.2876 0 62.2125 0 63.3535C0 64.4944 23.8938 65.4193 53.3683 65.4193Z" fill="#BABABA"/>
<defs>
<clipPath id="clip0_125_4">
<rect width="99.1617" height="63.3533" fill="white" transform="translate(4.82031)"/>
</clipPath>
</defs>
</svg>
