<svg width="113" height="83" viewBox="0 0 113 83" fill="none" xmlns="http://www.w3.org/2000/svg">
<mask id="mask0_1_452" style="mask-type:alpha" maskUnits="userSpaceOnUse" x="0" y="0" width="113" height="83">
<rect x="0.0385742" width="112.109" height="83" fill="#C4C4C4"/>
</mask>
<g mask="url(#mask0_1_452)">
<path d="M33.1085 70.9291H-53.6387V76.8193H33.1085V70.9291Z" fill="#4F5256"/>
<path d="M22.3989 73.6066H6.87012V54.3295H18.4791L22.3989 64.0519V73.6066Z" fill="#B684B9"/>
<path d="M15.9736 55.4003H9.01245V61.826H15.9736V55.4003Z" fill="white"/>
<path d="M20.7931 61.826H16.5093V55.4003H18.3453L20.7931 61.826Z" fill="white"/>
<path d="M11.1543 65.5748H9.54785V68.7877H11.1543V65.5748Z" fill="#3F3D56"/>
<path d="M18.1156 59.6847H18.1691C18.439 59.6847 18.6978 59.8257 18.8886 60.0768C19.0794 60.3278 19.1866 60.6683 19.1866 61.0234V61.0234C19.1866 61.3784 19.0794 61.7189 18.8886 61.97C18.6978 62.221 18.439 62.3621 18.1691 62.3621H18.1156V59.6847Z" fill="#3F3D56"/>
<path d="M28.4362 70.6937C30.7893 70.6937 32.9059 71.8171 34.3746 73.6067H37.3924L34.4585 65.5532L20.7926 62.8972L21.1786 73.6067H22.4979C23.9665 71.8171 26.0831 70.6937 28.4362 70.6937Z" fill="#B684B9"/>
<path d="M28.5571 82.1743C32.2538 82.1743 35.2506 79.1775 35.2506 75.4808C35.2506 71.7841 32.2538 68.7874 28.5571 68.7874C24.8604 68.7874 21.8636 71.7841 21.8636 75.4808C21.8636 79.1775 24.8604 82.1743 28.5571 82.1743Z" fill="#3F3D56"/>
<path d="M28.5571 78.9611C30.4794 78.9611 32.0377 77.4028 32.0377 75.4805C32.0377 73.5582 30.4794 71.9999 28.5571 71.9999C26.6349 71.9999 25.0765 73.5582 25.0765 75.4805C25.0765 77.4028 26.6349 78.9611 28.5571 78.9611Z" fill="#D0CDE1"/>
<path d="M7.40573 51.6519H4.19287V74.1419H7.40573V51.6519Z" fill="#4F5256"/>
<path d="M7.40566 70.3942H-53.6387V71.4651H7.40566V70.3942Z" fill="#3F3D56"/>
<path d="M18.6509 62.3613H17.0444V62.8968H18.6509V62.3613Z" fill="#3F3D56"/>
<path d="M35.3308 68.5162L35.26 68.543C34.9031 68.678 34.5072 68.6657 34.1594 68.5088C33.8116 68.3519 33.5403 68.0632 33.4054 67.7063V67.7063C33.2704 67.3494 33.2827 66.9535 33.4396 66.6057C33.5965 66.2579 33.8852 65.9867 34.2421 65.8517L34.3129 65.8249L35.3308 68.5162Z" fill="#3F3D56"/>
<rect x="-51.4967" y="48.4393" width="55.1541" height="21.9545" fill="#6B6D70"/>
<path d="M166.4 66.5004C166.4 66.0704 166.4 51.2638 166.4 51.1205C166.4 50.9771 163.121 51.1205 163.121 51.1205V66.5004H160.796V63.4081H75.7343V66.5004H77.6231L80.9442 71.2926H88.5413V73.0129H217.338V66.5004H166.4Z" fill="#4F5256"/>
<path d="M94.3737 72.5416C94.3737 72.7055 94.3737 72.8488 94.3944 73.0127H110.502C110.523 72.8284 110.523 72.7464 110.523 72.5416C110.523 68.1386 106.911 64.5752 102.448 64.5752C97.9854 64.5752 94.3737 68.1386 94.3737 72.5416Z" fill="#34363F"/>
<path d="M102.448 78.9107C106.014 78.9107 108.904 76.0592 108.904 72.5417C108.904 69.0241 106.014 66.1726 102.448 66.1726C98.8832 66.1726 95.993 69.0241 95.993 72.5417C95.993 76.0592 98.8832 78.9107 102.448 78.9107Z" fill="#282A32"/>
<path d="M103.095 76.464C105.29 76.1124 106.781 74.0717 106.425 71.9058C106.069 69.7398 104 68.269 101.805 68.6205C99.6097 68.972 98.1189 71.0128 98.4752 73.1787C98.8315 75.3446 100.9 76.8155 103.095 76.464Z" fill="#22232B"/>
<path d="M103.093 75.228C104.599 74.8771 105.532 73.388 105.176 71.902C104.821 70.416 103.311 69.4958 101.805 69.8467C100.299 70.1976 99.3664 71.6867 99.7221 73.1727C100.078 74.6587 101.587 75.5788 103.093 75.228Z" fill="#BBBBC3"/>
<path d="M159.866 30.6173H79.9968V62.1936H159.866V30.6173Z" fill="#5A5C67"/>
<path d="M79.9968 30.6173H63.2799V62.1936H79.9968V30.6173Z" fill="#34363F"/>
<path d="M55.8937 65.2999C55.7162 65.1168 55.731 64.7945 56.0121 64.3989C56.197 64.1352 57.8463 62.1502 58.5046 61.3005C58.8596 60.839 59.1333 59.982 59.1333 59.3887C59.1333 58.5317 59.0889 55.9827 59.0815 54.7228C59.0741 53.7046 59.0223 52.6938 59.9542 52.1737C60.361 51.9467 60.9823 52.3202 61.219 52.7377C61.4335 53.1113 61.5592 53.646 61.5592 54.0782C61.5592 55.1916 61.0045 58.6562 60.8492 59.8062C60.716 60.7951 60.1983 61.6814 59.5031 62.3992C58.5785 63.3661 57.5431 64.3916 56.6112 65.2706C56.3449 65.5196 56.0343 65.4464 55.8937 65.2999Z" fill="#2E5372"/>
<path d="M57.3286 64.0037C57.7428 63.5715 58.5046 62.6925 58.9114 62.2018C59.4292 61.5792 59.8434 61.103 59.9765 60.312C60.1096 59.4916 60.1984 57.2282 60.2058 56.8253C60.2132 56.481 60.2649 55.4336 60.6347 55.3823C61.0267 55.3237 61.2634 55.6753 61.3892 55.9756C61.2117 57.382 60.9454 59.0667 60.8492 59.8065C60.7161 60.7954 60.1984 61.6817 59.5031 62.3995C58.5786 63.3664 57.5431 64.3919 56.6112 65.2709C56.5225 65.3515 56.4337 65.3954 56.3449 65.4174C56.3228 65.3954 56.308 65.3661 56.2932 65.3222C56.2488 65.0951 56.9662 64.3846 57.3286 64.0037Z" fill="#204361"/>
<path d="M67.3726 60.8096C67.0324 60.8389 62.2396 61.2857 61.6183 61.2564C61.4704 61.2491 61.2263 61.1685 61.1672 60.9561C61.0784 60.6412 61.2115 59.0883 61.0562 58.202C60.9009 57.3083 59.895 54.3784 59.7027 53.287C59.6066 52.7376 59.5918 52.386 60.0134 52.1663C60.4276 51.9465 61.6701 51.5876 62.1139 51.4924C63.0088 51.3093 64.0147 51.2214 64.9244 51.2653C65.3386 51.2873 66.0413 51.3679 66.3519 51.6682C66.6182 51.9172 66.8179 52.3128 66.9362 52.6644C67.2469 53.5726 67.1803 55.8727 67.2173 56.693C67.2469 57.4841 67.38 57.9602 67.5205 58.5536C67.661 59.1542 67.7572 59.5497 67.9051 60.1284C68.0235 60.5826 67.8829 60.773 67.3726 60.8096Z" fill="#2E5372"/>
<path d="M65.3092 58.8467C65.6938 58.4877 66.3594 58.7588 66.5148 58.3119C66.6775 57.8578 66.3372 57.0521 66.1376 56.51C65.9822 56.0852 65.3609 54.9718 66.0562 55.0377C66.3446 55.067 66.818 55.1329 67.21 55.2648C67.2248 55.8508 67.2174 56.3855 67.2322 56.7005C67.2618 57.4916 67.3949 57.9677 67.5354 58.561C67.676 59.1616 67.7721 59.5572 67.92 60.1358C68.031 60.5753 67.8905 60.7658 67.3801 60.8097C67.2618 60.8171 66.5591 60.883 65.679 60.9636C65.5459 60.8757 65.4349 60.7585 65.3462 60.612C64.8284 59.8428 64.932 59.1983 65.3092 58.8467Z" fill="#204361"/>
<path d="M56.8921 79.3932C56.8921 79.7887 56.8477 79.9865 56.3374 80.0011C56.0637 80.0085 55.6717 79.9352 55.4424 79.9352C55.0135 79.9425 54.1851 80.1037 53.5194 80.0451C53.0017 80.0011 52.2251 79.9279 52.3582 79.5616C52.4766 79.2394 53.231 79.2247 53.5416 79.1441C53.9706 79.0269 54.407 78.9024 54.7768 78.6534C55.191 78.3823 55.3907 78.1553 55.5904 77.789C55.8862 77.2397 55.975 76.7782 56.4261 76.7709C56.9217 76.7635 57.0548 77.1151 56.8477 78.3384C56.796 78.6753 56.8921 79.1295 56.8921 79.3932Z" fill="#1E2859"/>
<path d="M76.5144 78.8293C76.3221 79.0124 75.7156 79.3274 75.4124 79.1882C75.1017 79.0417 75.5973 78.1407 75.5751 77.7745C75.5529 77.313 75.2127 76.1557 74.939 75.87C74.6875 75.6137 74.4287 75.4525 74.1772 75.2255C73.9553 75.0277 73.8888 74.7054 74.0219 74.5369C74.2364 74.2732 74.5396 74.1487 74.9464 74.4124C75.0795 74.5003 75.5011 74.7347 75.7822 74.8885C76.0337 75.0277 76.2925 75.0277 76.6401 75.1815C76.9952 75.3426 76.9434 75.7382 76.9212 75.87C76.8694 76.185 76.825 76.6465 76.825 76.9175C76.8177 77.357 76.9212 77.606 76.8916 78.0382C76.8768 78.3092 76.7363 78.6242 76.5144 78.8293Z" fill="#1E2859"/>
<path d="M75.3532 74.1636C74.8651 73.7827 70.3164 70.1715 69.9984 69.8346C69.6212 69.4391 69.207 68.6846 69.133 68.1279C68.9481 66.8607 68.9111 64.1725 68.8372 62.3925C68.815 61.8285 68.4969 61.2718 67.8535 60.9129C67.4319 60.6712 66.855 60.5613 66.4704 60.261C66.108 59.9826 65.7899 59.4626 65.679 59.0304C65.4571 58.1514 65.0577 56.3129 64.969 55.3533C64.895 54.6355 64.8358 53.4708 65.1982 52.5332C65.3757 52.0718 65.7973 51.6323 65.9379 51.4931C66.0266 51.4052 66.0488 51.3613 65.9674 51.3466C65.8491 51.3173 65.6272 51.288 65.5163 51.2734C65.3905 51.2587 65.3018 51.31 65.2056 51.3906C64.9542 51.625 64.5844 52.1817 64.4364 52.7164C64.2441 53.4196 64.1776 54.2253 64.2515 55.1482C63.6081 55.1922 62.4395 55.2801 61.8108 55.3313C61.4336 53.9469 61.2265 52.6944 61.367 51.8227C61.3892 51.6836 61.404 51.625 61.3226 51.6543C61.2191 51.6909 60.9972 51.7568 60.8567 51.8008C60.7383 51.8374 60.7087 52.0132 60.6939 52.0645C60.509 52.7237 60.938 54.7966 61.1895 55.6243C61.1895 55.6243 61.6185 58.2833 61.6481 58.8546C61.6776 59.36 61.7442 59.8728 61.5889 60.3782C61.5223 60.5979 61.3152 60.9495 61.1673 61.1034C60.901 61.3744 60.6274 61.4403 60.6052 61.7479C60.583 61.975 60.546 62.9346 60.546 63.3741C60.1392 64.7658 58.5638 67.6664 58.1423 68.4942C57.521 69.6954 57.3435 70.926 57.1586 71.6219C56.8035 72.9696 56.3967 74.5298 55.9456 76.4343C55.8864 76.6907 55.7755 77.306 55.8716 77.5111C55.9974 77.7748 56.2636 77.9506 56.5003 78.0604C56.9219 78.2509 57.4618 78.3461 57.7133 77.9359C57.8242 77.7528 58.1792 76.7493 58.2828 76.5002C58.8375 75.0719 59.2443 74.149 59.8212 72.6986C60.154 71.8636 60.8567 70.7795 61.4705 69.82C62.0327 68.941 63.5267 66.7948 63.8225 66.3626C64.1702 65.8572 64.7545 65.8059 65.0651 66.5091C65.361 67.1683 66.2411 69.6588 66.5517 70.3034C66.8624 70.9407 67.4023 71.6731 68.0754 72.1566C68.9185 72.7646 73.3415 75.7751 74.0515 76.09C74.4361 76.2585 74.6358 76.0607 74.7911 75.9655C74.976 75.8483 75.1535 75.6139 75.3237 75.3136C75.4124 75.1598 75.5529 74.8595 75.5825 74.6397C75.5751 74.3687 75.4494 74.2295 75.3532 74.1636Z" fill="#B684B9"/>
<path d="M64.9763 66.3701C64.6509 65.7988 64.1184 65.872 63.7929 66.3482C63.4971 66.7803 62.0104 68.9265 61.4409 69.8055C60.827 70.7651 60.1244 71.8491 59.7916 72.6842C59.444 73.5558 59.1629 74.2297 58.8745 74.9476C58.8449 74.9036 58.8227 74.8377 58.8227 74.7498C58.8227 74.4202 59.1407 73.8415 59.2812 73.2482C59.3996 72.7647 59.4735 71.9077 59.7472 71.2998C59.8803 70.9994 60.4868 70.4794 60.7161 69.952C60.975 69.3514 60.9824 68.6701 61.3374 68.1134C61.5445 67.7838 62.0548 67.5568 62.2767 67.1466C62.6095 66.5093 62.5652 65.2934 62.9941 64.8685C63.2086 64.9052 64.0518 65.0736 64.1997 65.1029C64.3476 65.1322 64.4512 65.2567 64.4956 65.352C64.6731 65.7109 64.7544 65.938 64.9319 66.2749C64.9541 66.2896 64.9689 66.3335 64.9763 66.3701Z" fill="#9B689E"/>
<path d="M70.3014 58.9937C69.8946 57.7338 68.4227 53.6319 68.0603 52.7529C67.8532 52.2401 67.3355 51.7054 66.7438 51.5736C66.448 51.5076 66.2113 51.4491 66.0781 51.4271C66.056 51.4198 66.0486 51.4344 66.0338 51.4564C65.7527 51.7713 65.3089 52.1962 65.3089 52.7016C65.3089 53.2217 65.4125 53.9029 65.7749 54.6354C66.3074 55.7048 67.3725 57.7484 67.6905 58.3564C68.1417 59.2281 67.9198 59.4991 67.1654 59.88C66.3 60.3195 62.9865 61.8504 62.6833 61.9456C62.3431 62.0555 62.2321 62.3631 62.3135 62.6634C62.38 62.9125 62.7203 63.0297 63.0531 62.9638C64.5175 62.6634 68.1417 61.6087 69.3842 61.1765C70.4937 60.7956 70.6786 60.1437 70.3014 58.9937Z" fill="#2E5372"/>
<path d="M61.2118 47.4636C61.3523 46.8922 62.0697 46.5699 62.7428 46.526C63.438 46.482 64.0667 46.8556 64.3108 47.3464C64.5401 47.8152 64.6067 48.5916 64.015 49.7636C63.8744 50.0419 63.9558 50.1738 63.9706 50.4814C63.978 50.5547 63.978 50.6059 63.978 50.6499C64.0076 50.7744 64.0297 50.8916 64.0667 51.0234C64.1407 51.3238 64.3848 51.2725 64.4439 51.4263C64.6658 51.9977 63.549 52.9279 62.5949 52.9645C61.7073 53.0012 61.7369 51.9977 61.7887 51.7633C61.8331 51.5801 61.9958 51.5508 62.0919 51.4922C62.2399 51.397 62.262 51.3091 62.2547 51.1333C62.2547 51.0967 62.2473 51.0601 62.2473 51.0161C62.2251 50.8184 62.2029 50.3276 62.0697 50.2177C61.9588 50.1298 61.907 50.0932 61.7813 50.0053C61.6704 49.9247 61.5002 49.6171 61.4559 49.4193C61.3893 49.141 61.4041 48.6429 61.3819 48.3645C61.3375 48.0056 61.123 47.8225 61.2118 47.4636Z" fill="#FEC1B5"/>
<path d="M63.164 49.5439C63.2084 49.4926 63.4525 49.1337 63.4821 49.1777C63.5338 49.2582 63.4007 49.7344 63.275 49.9321C63.1566 50.1153 62.7942 50.5254 62.417 50.5767C62.2987 50.5914 62.2247 50.5987 62.1803 50.5914C62.1581 50.4302 62.1212 50.2837 62.0546 50.2325C61.9436 50.1446 61.8919 50.1079 61.7661 50.02C61.7292 49.9907 61.6996 49.9614 61.6774 49.9248C62.1286 50.0567 62.7868 50.0054 63.164 49.5439Z" fill="#E8988C"/>
<path d="M61.2116 47.4642C61.2338 47.3837 61.2634 47.3031 61.3078 47.2372C61.3522 47.2005 61.4113 47.1639 61.4705 47.1346C62.0326 46.8709 63.0163 46.9955 63.4083 47.5009C63.645 47.8085 63.253 47.8671 62.9793 47.8744C62.6391 47.8818 62.1657 47.8525 61.8329 47.933C61.6924 47.9697 61.5592 48.0136 61.4705 48.1308C61.3891 48.2407 61.4039 48.3872 61.3743 48.5044C61.3743 48.4531 61.3669 48.4092 61.3669 48.3652C61.3374 48.0063 61.1229 47.8232 61.2116 47.4642Z" fill="#E8988C"/>
<path d="M61.3222 46.7898C61.581 46.4602 62.0766 46.1526 62.6535 46.1159C63.4745 46.0647 64.3768 46.387 64.5025 46.8997C64.5469 47.0975 64.5321 47.2879 64.6579 47.4124C65.0129 47.7714 64.7096 48.5258 64.5987 48.8042C64.4434 49.1924 64.0588 49.9981 63.9182 49.9468C63.8295 49.9175 63.7111 49.6392 63.7185 49.522C63.7333 49.2656 63.7481 49.0019 63.7925 48.7529C63.8221 48.5698 63.8221 48.5698 63.7333 48.4159C63.7038 48.4819 63.6298 48.6796 63.6298 48.6796L63.3709 48.5624C63.149 48.2401 63.0381 47.7494 63.0825 47.2659C63.0381 47.2073 62.9345 47.1341 62.8754 47.1121C62.4538 46.9363 61.7216 47.1121 61.4331 47.3685C61.2704 47.515 61.263 47.6029 61.263 47.7274C61.263 47.808 61.3148 48.0058 61.2334 47.9838C61.1595 47.9691 61.0707 47.7714 61.0559 47.493C61.0263 47.2586 61.2038 46.9436 61.3222 46.7898Z" fill="#1E2859"/>
<path d="M63.6308 48.5554C63.5643 48.8115 63.6382 49.053 63.8081 49.0969C63.9707 49.1408 64.1628 48.9652 64.2293 48.7091C64.2958 48.453 64.2219 48.2115 64.052 48.1676C63.8894 48.131 63.6973 48.2993 63.6308 48.5554Z" fill="#FEC1B5"/>
<path d="M64.8137 48.4381C64.7915 48.5407 64.6953 48.7311 64.577 48.5993C64.2442 48.2184 63.9557 47.9766 63.475 47.691C63.1643 47.5078 62.8759 47.354 62.5209 47.2881C62.0401 47.2002 61.5741 47.2295 61.1747 47.4053C61.1082 47.4346 61.049 47.3614 61.0786 47.2588C61.1969 46.8413 61.4114 46.519 61.9587 46.1894C62.3655 45.9477 63.2309 46.0282 63.7338 46.182C65.0208 46.5556 65.0208 47.5445 64.8137 48.4381Z" fill="#2E5372"/>
<path d="M63.3123 47.5515C63.2087 47.4929 62.8685 47.3538 62.6762 47.2586C62.4765 47.1633 62.3064 47.0535 62.1215 46.9143C61.9588 46.7971 61.8256 46.57 61.552 46.4308C61.3893 46.3429 61.2931 46.3429 61.2487 46.3356C61.2265 46.3356 61.2561 46.3063 61.3967 46.3503C61.6851 46.4382 62.1289 46.6726 62.3951 46.7605C63.0978 46.9802 63.3492 47.3904 63.3862 47.5662C63.3788 47.5955 63.3566 47.5808 63.3123 47.5515Z" fill="#2E5372"/>
<path d="M63.3563 47.5665C62.957 47.3468 62.3431 47.1783 61.8993 46.6802C61.4703 46.2041 60.8564 46.2187 60.4718 46.5337C60.3017 46.6729 60.0502 46.9879 60.1612 47.2882C60.2647 47.5592 60.7233 47.7057 60.9822 47.7423C61.1079 47.757 61.1375 47.7423 61.1819 47.6837C61.2632 47.5958 61.3964 47.4493 61.633 47.3541C61.9807 47.2222 62.5132 47.2882 62.846 47.398C62.9496 47.4273 63.201 47.5445 63.3046 47.6031C63.3711 47.6324 63.4081 47.6031 63.3563 47.5665Z" fill="#204361"/>
<path d="M63.1492 62.2168C63.0605 62.0776 62.7794 61.8945 62.5945 61.9678C61.6182 62.3999 61.1597 62.063 60.7381 62.1729C60.5236 62.2241 60.1168 62.6197 60.1686 62.9053C60.2129 63.1764 60.9156 63.9528 61.3594 63.9748C61.8253 63.9967 62.0176 63.7037 62.1434 63.5206C62.2839 63.3228 62.6093 63.1324 62.92 63.0518C63.1936 63.0006 63.3194 62.5098 63.1492 62.2168Z" fill="#E8988C"/>
<path d="M47.344 78.1932H50.9534C51.0052 78.1932 51.0569 78.1639 51.0791 78.1199L61.2859 60.4597C61.3673 60.3132 61.3673 60.1374 61.2859 59.9909C61.1972 59.8444 61.0492 59.7565 60.8791 59.7565H58.3792C57.9872 59.7565 57.6174 59.9689 57.4177 60.3058L47.2109 77.9734C47.1813 78.0174 47.1813 78.076 47.2109 78.1199C47.2405 78.1639 47.2923 78.1932 47.344 78.1932ZM50.872 77.9002H47.6029L57.6766 60.4597C57.8171 60.2106 58.0907 60.0568 58.3792 60.0568H60.8791C60.9679 60.0568 61.0122 60.1154 61.027 60.1447C61.0418 60.174 61.0714 60.2399 61.027 60.3205L50.872 77.9002Z" fill="#1E2859"/>
<path d="M42.6028 76.0385H44.0155V80.0598H42.6028C41.7079 80.0598 40.9905 79.1588 40.9905 78.0528C40.9905 76.9467 41.7153 76.0385 42.6028 76.0385Z" fill="#3C3C3B"/>
<path d="M44.0231 80.0525C43.1326 80.0525 42.4108 79.1539 42.4108 78.0455C42.4108 76.937 43.1326 76.0385 44.0231 76.0385C44.9136 76.0385 45.6355 76.937 45.6355 78.0455C45.6355 79.1539 44.9136 80.0525 44.0231 80.0525Z" fill="#706F6F"/>
<path d="M44.0229 79.0716C43.5654 79.0716 43.1946 78.6125 43.1946 78.0461C43.1946 77.4798 43.5654 77.0206 44.0229 77.0206C44.4804 77.0206 44.8513 77.4798 44.8513 78.0461C44.8513 78.6125 44.4804 79.0716 44.0229 79.0716Z" fill="#C6C6C6"/>
<path d="M58.3939 63.8363C58.4309 63.8363 58.4679 63.8216 58.4975 63.7923C58.5566 63.7337 58.5566 63.6458 58.4975 63.5872L57.0034 62.0783H60.1912L60.6645 62.569C60.7237 62.6276 60.8125 62.6276 60.8716 62.5764C60.9308 62.5178 60.9308 62.4299 60.879 62.3713L60.3613 61.8292C60.3317 61.7999 60.2947 61.7853 60.2578 61.7853H56.6484C56.5892 61.7853 56.5375 61.8219 56.5153 61.8732C56.4931 61.9245 56.5079 61.9904 56.5449 62.0343L58.283 63.7923C58.3199 63.8216 58.3569 63.8363 58.3939 63.8363Z" fill="#1E2859"/>
<path d="M51.3305 66.766L55.6203 71.1756L59.0004 65.3303L54.7032 60.9208L51.3305 66.766Z" fill="#CE9E41"/>
<path d="M48.8011 60.9209H54.7032L51.3306 66.7662H45.4284L48.8011 60.9209Z" fill="#E4AF48"/>
<path d="M49.7181 71.1757H55.6202L51.3304 66.7661H45.4283L49.7181 71.1757Z" fill="#B37A54"/>
<path d="M47.8024 72.8616L52.854 78.0476L56.8331 71.1769L51.7741 65.9908L47.8024 72.8616Z" fill="#EABD64"/>
<path d="M44.8292 65.9908H51.7743L47.8025 72.8616H40.8575L44.8292 65.9908Z" fill="#FFCA64"/>
<path d="M45.9091 78.0482H52.8541L47.8025 72.8622H40.8575L45.9091 78.0482Z" fill="#E4AF48"/>
<path d="M45.2804 70.8471H47.8764L47.943 70.7225H45.3543L45.2804 70.8471Z" fill="#F0C397"/>
<path d="M45.0658 71.2283H47.6544L47.7284 71.1038H45.1323L45.0658 71.2283Z" fill="#F0C397"/>
<path d="M44.844 71.6012H47.44L47.5066 71.484H44.9179L44.844 71.6012Z" fill="#F0C397"/>
<path d="M45.5536 71.9833H47.2178L47.2917 71.8588H45.6276L45.5536 71.9833Z" fill="#F0C397"/>
<path d="M44.0231 78.1925H53.9636C54.045 78.1925 54.1116 78.1266 54.1116 78.046C54.1116 77.9655 54.045 77.8995 53.9636 77.8995H44.0231C43.9418 77.8995 43.8752 77.9655 43.8752 78.046C43.8752 78.1266 43.9418 78.1925 44.0231 78.1925Z" fill="#1E2859"/>
<path d="M47.344 78.1921H50.9534C51.0125 78.1921 51.0643 78.1555 51.0865 78.1042C51.1087 78.0529 51.0939 77.987 51.0569 77.9431L48.165 75.0278C47.8544 74.7128 47.418 74.5297 46.9668 74.5297H44.8663C44.6592 74.5297 44.4743 74.6469 44.3929 74.8373C44.3116 75.0278 44.3559 75.2402 44.4965 75.3867L47.2257 78.1408C47.2627 78.1775 47.2996 78.1921 47.344 78.1921ZM50.6057 77.8991H47.4106L44.7258 75.1889C44.6592 75.123 44.6444 75.0351 44.6814 74.9545C44.7184 74.8739 44.7923 74.8227 44.8811 74.8227H46.9816C47.3514 74.8227 47.7064 74.9692 47.9653 75.2329L50.6057 77.8991Z" fill="#1E2859"/>
<path d="M53.9638 76.0385H55.3765V80.0598H53.9638C53.0688 80.0598 52.3514 79.1588 52.3514 78.0528C52.3514 76.9467 53.0688 76.0385 53.9638 76.0385Z" fill="#3C3C3B"/>
<path d="M55.3765 80.0525C54.486 80.0525 53.7641 79.1539 53.7641 78.0455C53.7641 76.937 54.486 76.0385 55.3765 76.0385C56.267 76.0385 56.9889 76.937 56.9889 78.0455C56.9889 79.1539 56.267 80.0525 55.3765 80.0525Z" fill="#706F6F"/>
<path d="M55.3765 79.0716C54.919 79.0716 54.5481 78.6125 54.5481 78.0461C54.5481 77.4798 54.919 77.0206 55.3765 77.0206C55.834 77.0206 56.2048 77.4798 56.2048 78.0461C56.2048 78.6125 55.834 79.0716 55.3765 79.0716Z" fill="#C6C6C6"/>
</g>
</svg>
